HIERARCHY
ROOT Hips
{
	OFFSET 0.00000 0.00000 0.00000
	CHANNELS 6 Xposition Yposition Zposition Zrotation Yrotation Xrotation 
	JOINT LHipJoint
	{
		OFFSET 0 0 0
		CHANNELS 3 Zrotation Yrotation Xrotation
		JOINT LeftUpLeg
		{
			OFFSET 1.61024 -1.73873 0.75100
			CHANNELS 3 Zrotation Yrotation Xrotation
			JOINT LeftLeg
			{
				OFFSET 2.29819 -6.31424 0.00000
				CHANNELS 3 Zrotation Yrotation Xrotation
				JOINT LeftFoot
				{
					OFFSET 2.76618 -7.60002 0.00000
					CHANNELS 3 Zrotation Yrotation Xrotation
					JOINT LeftToeBase
					{
						OFFSET 0.16838 -0.46263 2.02361
						CHANNELS 3 Zrotation Yrotation Xrotation
						End Site
						{
							OFFSET 0.00000 -0.00000 1.04662
						}
					}
				}
			}
		}
	}
	JOINT RHipJoint
	{
		OFFSET 0 0 0
		CHANNELS 3 Zrotation Yrotation Xrotation
		JOINT RightUpLeg
		{
			OFFSET -1.46153 -1.73873 0.75100
			CHANNELS 3 Zrotation Yrotation Xrotation
			JOINT RightLeg
			{
				OFFSET -2.38373 -6.54924 0.00000
				CHANNELS 3 Zrotation Yrotation Xrotation
				JOINT RightFoot
				{
					OFFSET -2.80314 -7.70157 0.00000
					CHANNELS 3 Zrotation Yrotation Xrotation
					JOINT RightToeBase
					{
						OFFSET -0.16142 -0.44349 2.02101
						CHANNELS 3 Zrotation Yrotation Xrotation
						End Site
						{
							OFFSET -0.00000 -0.00000 1.04381
						}
					}
				}
			}
		}
	}
	JOINT LowerBack
	{
		OFFSET 0 0 0
		CHANNELS 3 Zrotation Yrotation Xrotation
		JOINT Spine
		{
			OFFSET -0.01629 1.66985 0.14750
			CHANNELS 3 Zrotation Yrotation Xrotation
			JOINT Spine1
			{
				OFFSET 0.02086 1.62378 0.20980
				CHANNELS 3 Zrotation Yrotation Xrotation
				JOINT Neck
				{
					OFFSET 0 0 0
					CHANNELS 3 Zrotation Yrotation Xrotation
					JOINT Neck1
					{
						OFFSET -0.05690 1.78719 0.08702
						CHANNELS 3 Zrotation Yrotation Xrotation
						JOINT Head
						{
							OFFSET 0.16035 1.73871 -0.38470
							CHANNELS 3 Zrotation Yrotation Xrotation
							End Site
							{
								OFFSET 0.05645 1.80914 -0.14081
							}
						}
					}
				}
				JOINT LeftShoulder
				{
					OFFSET 0 0 0
					CHANNELS 3 Zrotation Yrotation Xrotation
					JOINT LeftArm
					{
						OFFSET 2.83089 1.66494 -0.46008
						CHANNELS 3 Zrotation Yrotation Xrotation
						JOINT LeftForeArm
						{
							OFFSET 5.54893 -0.00000 -0.00000
							CHANNELS 3 Zrotation Yrotation Xrotation
							JOINT LeftHand
							{
								OFFSET 3.02898 -0.00000 -0.00000
								CHANNELS 3 Zrotation Yrotation Xrotation
								JOINT LeftFingerBase
								{
									OFFSET 0 0 0
									CHANNELS 3 Zrotation Yrotation Xrotation
									JOINT LeftHandIndex1
									{
										OFFSET 0.64095 -0.00000 -0.00000
										CHANNELS 3 Zrotation Yrotation Xrotation
										End Site
										{
											OFFSET 0.51675 -0.00000 -0.00000
										}
									}
								}
								JOINT LThumb
								{
									OFFSET 0 0 0
									CHANNELS 3 Zrotation Yrotation Xrotation
									End Site
									{
										OFFSET 0.52464 -0.00000 0.52464
									}
								}
							}
						}
					}
				}
				JOINT RightShoulder
				{
					OFFSET 0 0 0
					CHANNELS 3 Zrotation Yrotation Xrotation
					JOINT RightArm
					{
						OFFSET -2.84442 1.45761 -0.18088
						CHANNELS 3 Zrotation Yrotation Xrotation
						JOINT RightForeArm
						{
							OFFSET -5.35190 -0.00000 -0.00000
							CHANNELS 3 Zrotation Yrotation Xrotation
							JOINT RightHand
							{
								OFFSET -3.02531 -0.00000 -0.00000
								CHANNELS 3 Zrotation Yrotation Xrotation
								JOINT RightFingerBase
								{
									OFFSET 0 0 0
									CHANNELS 3 Zrotation Yrotation Xrotation
									JOINT RightHandIndex1
									{
										OFFSET -0.78389 -0.00000 -0.00000
										CHANNELS 3 Zrotation Yrotation Xrotation
										End Site
										{
											OFFSET -0.63199 -0.00000 -0.00000
										}
									}
								}
								JOINT RThumb
								{
									OFFSET 0 0 0
									CHANNELS 3 Zrotation Yrotation Xrotation
									End Site
									{
										OFFSET -0.64164 -0.00000 0.64164
									}
								}
							}
						}
					}
				}
			}
		}
	}
}
MOTION
Frames: 9
Frame Time: 0.0135135
0.00 0.00 0.00 0 0 0 0 0 0 -21 0 0 0 0 0 0 0 0 0 0 0 0 0 0 21 0 0 0 0 0 0 0 0 0 0 0 0 0 0 0 0 0 0 0 0 0 0 -16 0 0 21 0 0 11 0 0 0 -8 0 0 0 0 0 0 0 0 0 0 0 0 0 0 0 0 0 0 0 0 8 0 0 0 0 0 0 0 0 0 0 0 0 0 0 0 0 0
0.00 0.00 0.00 -35.7615 66.3751 -11.4221 0.0000 0.0000 0.0000 10.3596 -19.1854 -19.7439 1.2746 7.1551 20.1757 1.6994 27.2573 -45.6105 0.0550 1.5136 4.1632 0.0000 0.0000 0.0000 36.1091 20.5420 -21.4436 -0.0793 -1.8166 4.9991 0.0718 4.7796 2.3280 -0.1807 2.7377 -7.5494 -11.5863 5.5422 7.2619 -12.8734 6.4491 0.2215 -8.0385 3.5112 -3.5638 0.0615 5.5255 -10.6620 14.6223 7.3554 1.8408 4.7382 4.3893 1.7544 -0.0000 0.0000 0.0000 -130.9449 -43.0646 55.7332 136.7881 -49.8618 -99.1374 -0.0000 -0.0000 14.2853 59.8274 15.4735 24.6503 -7.1250 0.0000 -0.0000 36.2138 54.8606 9.7155 -0.0000 0.0000 0.0000 112.6926 85.8349 124.1939 -89.1283 59.9971 -59.2450 0.0000 -0.0000 -70.5176 22.5530 9.3978 3.8795 7.1250 -0.0000 -0.0000 33.0891 -19.7424 24.3834
0.00 0.00 0.00 -65.2425 72.5591 -42.3041 0.0000 0.0000 0.0000 14.6209 -19.5602 -24.5945 1.6472 8.0889 22.9844 -0.7909 26.0660 -31.9100 0.3811 -3.9646 -10.9772 0.0000 0.0000 0.0000 39.4015 14.5475 -18.4391 0.0000 -0.0000 0.0000 -0.0027 -0.6033 0.9536 -0.3497 3.7994 -10.5129 -13.3628 6.8552 8.4537 -11.3853 7.9576 1.1411 -5.7326 4.2474 -3.6090 -2.0914 3.6628 -14.8652 20.9938 4.5655 5.1107 7.2975 3.7687 3.5128 0.0000 0.0000 0.0000 -126.6213 -48.3685 48.9129 142.8190 -46.3082 -103.6292 -0.0000 -0.0000 3.9430 59.2460 23.2520 33.5625 -7.1250 0.0000 -0.0000 43.7664 64.7669 22.9320 0.0000 0.0000 0.0000 147.8949 80.4555 156.7303 -88.6226 59.9928 -58.8072 0.0000 -0.0000 -64.2885 17.0171 10.7482 3.2668 7.1250 -0.0000 -0.0000 29.6910 -19.0628 21.4433
0.00 0.00 0.00 -137.8310 69.0467 -114.2860 0.0000 0.0000 0.0000 15.2500 -28.7502 -35.5235 2.1933 9.2576 26.6046 -0.5515 17.4172 -18.7959 1.4548 -7.6237 -21.5769 0.0000 0.0000 0.0000 35.2082 6.3526 -24.1566 -0.0744 -1.7598 4.8423 0.4714 -12.4703 -8.0093 -0.9186 6.1066 -17.0939 -12.3763 8.0224 11.3134 -7.8671 9.3463 3.0477 -2.9300 4.8467 -3.5931 -3.4567 -0.8177 -13.1162 26.6500 -1.0053 3.5616 9.0810 1.2931 3.5916 -0.0000 -0.0000 0.0000 -119.3212 -64.6023 50.6534 129.8999 -53.0358 -93.7459 -0.0000 0.0000 -19.1809 36.2307 27.0419 18.4240 -7.1250 0.0000 -0.0000 7.6118 62.1475 3.1838 -0.0000 -0.0000 0.0000 144.6072 74.0450 131.3660 -80.7256 59.6725 -51.9769 0.0000 -0.0000 -47.2725 -7.6412 10.2009 -1.3611 7.1250 -0.0000 -0.0000 13.7036 -19.8261 8.4873
0.00 0.00 0.00 -145.9590 66.5623 -121.5080 0.0000 0.0000 0.0000 13.8151 -30.5515 -38.5649 2.3955 9.6454 27.8360 -0.3411 14.8293 -16.8305 1.4790 -7.6842 -21.7590 0.0000 0.0000 0.0000 32.5754 5.8424 -25.2258 -0.1084 -2.1232 5.8462 0.7726 -15.8312 -10.1123 -0.7252 5.4413 -15.1716 -11.8376 8.4907 12.3911 -5.6571 9.8828 3.7770 -1.0919 5.0458 -3.7444 -3.0518 -2.1551 -12.5090 26.8703 -2.6862 2.3607 8.9240 0.3522 3.4113 -0.0000 -0.0000 0.0000 -117.3746 -70.0364 55.4133 115.7463 -57.3408 -82.0979 -0.0000 0.0000 -34.6309 27.8803 30.5219 15.0390 -7.1250 0.0000 -0.0000 -4.3232 63.6320 -1.9552 -0.0000 -0.0000 0.0000 142.0196 73.4639 119.9361 -79.7604 59.6001 -51.1442 0.0000 -0.0000 -39.0230 -19.5008 10.9797 -3.8587 7.1250 -0.0000 -0.0000 5.3436 -18.3787 3.4010
0.00 0.00 0.00 -151.5480 64.9067 -125.9030 0.0000 0.0000 0.0000 12.5727 -32.2632 -41.2081 2.5496 9.9276 28.7425 -0.2349 13.2454 -15.6130 1.4942 -7.7218 -21.8724 0.0000 0.0000 0.0000 29.6423 6.2928 -27.6839 -0.2487 -3.2088 8.8607 1.0599 -18.5116 -12.2237 -0.7582 5.5610 -15.5157 -10.6386 8.4408 12.8491 -3.5511 9.9469 4.3485 0.4499 5.0253 -3.5902 -4.0551 -3.5185 -11.4638 27.2308 -4.2834 1.1038 9.0798 -0.6496 3.1569 -0.0000 0.0000 0.0000 -111.6598 -74.9069 57.1402 101.0415 -59.5343 -69.5473 -0.0000 0.0000 -47.5459 14.5126 36.3776 8.7283 -7.1250 0.0000 -0.0000 -25.1819 65.5814 -12.8836 -0.0000 0.0000 0.0000 139.6618 71.7966 110.2622 -80.5873 59.6626 -51.8576 0.0000 -0.0000 -29.8838 -31.2043 11.9969 -7.1761 7.1250 -0.0000 -0.0000 -2.7591 -16.0382 -1.8917
0.00 0.00 0.00 -157.2430 62.4246 -130.2980 0.0000 0.0000 0.0000 11.5494 -34.8932 -43.9626 2.6998 10.1924 29.6020 -0.1611 11.8168 -14.3688 1.4427 -7.5933 -21.4854 0.0000 0.0000 0.0000 26.5792 6.4644 -28.4172 -0.2759 -3.3787 9.3348 1.5349 -22.1014 -14.9143 -0.4648 4.3731 -12.1286 -7.2025 7.9578 14.8323 -0.6608 9.6243 4.5636 1.4475 4.8521 -4.3896 -4.9088 -6.6014 -11.0079 27.6967 -8.2683 -1.0948 9.0238 -2.8809 3.1764 0.0000 -0.0000 0.0000 -103.7526 -79.7553 61.9651 83.9206 -59.8599 -54.7375 -0.0000 0.0000 -60.6996 3.8940 38.1241 2.4063 -7.1250 0.0000 -0.0000 -38.5281 64.0723 -19.1636 0.0000 -0.0000 0.0000 140.0507 68.3714 97.7612 -84.2610 59.8752 -55.0320 0.0000 -0.0000 -13.9869 -38.0154 11.1053 -8.5626 7.1250 -0.0000 -0.0000 -7.5238 -16.0688 -5.1928
0.00 0.00 0.00 -163.4330 60.6634 -134.7490 0.0000 0.0000 0.0000 8.7452 -37.3313 -46.9220 2.7873 10.3425 30.0930 -0.0767 9.8256 -12.6311 1.1872 -6.9145 -19.4623 0.0000 0.0000 0.0000 21.6241 6.5369 -32.2613 -0.6341 -5.0948 14.1791 1.8381 -24.6211 -18.6323 -0.3831 3.9747 -11.0054 0.8183 4.9428 16.9302 2.1730 7.0836 4.8664 0.3777 3.6088 -4.4130 -4.4105 -9.7947 -10.3082 29.1604 -12.2614 -4.2356 9.0233 -5.1856 2.9243 -0.0000 -0.0000 0.0000 -75.3714 -89.3337 59.9590 70.7115 -58.5465 -43.3772 -0.0000 0.0000 -71.1048 -15.3796 40.6197 -10.1527 -7.1250 0.0000 -0.0000 -59.4845 60.6587 -28.1821 -0.0000 -0.0000 0.0000 152.2688 62.6420 84.1257 -97.8666 59.7649 -66.8073 0.0000 0.0000 2.6893 -46.0307 15.8136 -15.7746 7.1250 -0.0000 -0.0000 -11.8134 -8.1657 -10.2417
0.00 0.00 0.00 -163.4960 60.3570 -134.8790 0.0000 0.0000 0.0000 8.7269 -37.4919 -46.9976 2.8087 10.3788 30.2123 -0.0839 9.7831 -12.4231 1.2458 -7.0770 -19.9438 0.0000 0.0000 0.0000 21.4449 6.8665 -32.1547 -0.6596 -5.1943 14.4637 1.8556 -24.9584 -19.5145 -0.3103 3.5810 -9.9007 1.5232 4.6687 17.0379 2.7189 6.9067 5.0840 0.5978 3.5370 -4.2260 -4.6006 -10.1803 -10.9226 29.1035 -12.8675 -4.1516 8.9372 -5.4418 3.1697 0.0000 0.0000 0.0000 -37.5848 -89.8664 23.9715 70.3487 -58.4893 -43.0678 -0.0000 0.0000 -72.1703 -20.1779 48.0284 -15.2814 -7.1250 0.0000 -0.0000 -74.8491 63.0075 -43.9303 0.0000 0.0000 0.0000 152.3233 62.4876 82.3204 -99.2360 59.6752 -67.9899 0.0000 0.0000 5.7791 -44.8140 14.9827 -14.4052 7.1250 -0.0000 -0.0000 -11.2410 -9.6226 -9.3913
